<svg width="50"
  height="50"
  viewBox="0 0 50 50"
  fill="none"
  xmlns="http://www.w3.org/2000/svg">
  <path d="M19.5094 28.2228C19.3216 28.2228 15.1915 28.2228 13.3141 28.2228C12.3129 28.2228 12 27.8473 12 26.9086C12 24.4055 12 21.8398 12 19.3367C12 18.3354 12.3755 18.0225 13.3141 18.0225H19.5094C19.5094 17.8348 19.5094 14.2053 19.5094 12.5156C19.5094 10.0125 19.9474 7.63454 21.199 5.4443C22.5131 3.19149 24.3905 1.68961 26.7685 0.813516C28.3329 0.250312 29.8974 0 31.587 0H37.7196C38.5957 0 38.9712 0.375469 38.9712 1.25156V8.38548C38.9712 9.26158 38.5957 9.63705 37.7196 9.63705C36.03 9.63705 34.3404 9.63705 32.6508 9.69962C30.9612 9.69962 30.0851 10.5131 30.0851 12.2653C30.0225 14.1427 30.0851 15.9574 30.0851 17.8974H37.3442C38.3454 17.8974 38.7209 18.2728 38.7209 19.2741V26.8461C38.7209 27.8473 38.408 28.1602 37.3442 28.1602C35.0913 28.1602 30.2728 28.1602 30.0851 28.1602V48.5607C30.0851 49.6245 29.7722 50 28.6458 50C26.0175 50 23.4518 50 20.8235 50C19.8849 50 19.5094 49.6245 19.5094 48.6859C19.5094 42.1151 19.5094 28.4105 19.5094 28.2228V28.2228Z"
    fill="#526069"/>
</svg>
