<svg xmlns="http://www.w3.org/2000/svg" width="91" height="32" viewBox="0 0 91 32">
  <path fill="#FFF" fill-rule="evenodd" d="M90.6665786,7.45255273 L90.6665786,9.85662545 L90.2625398,9.85662545 L90.2625398,8.04018909 L89.5081579,9.85662545 L89.1845161,9.85662545 L88.403433,8.04018909 L88.403433,9.85662545 L88.0263888,9.85662545 L88.0263888,7.45255273 L88.538406,7.45255273 L89.3191957,9.34898909 L90.1548548,7.45255273 L90.6665786,7.45255273 Z M85.7632431,7.45255273 L87.5143715,7.45255273 L87.5143715,7.79960727 L86.8676746,7.79960727 L86.8676746,9.85662545 L86.4366412,9.85662545 L86.4366412,7.79960727 L85.7632431,7.79960727 L85.7632431,7.45255273 Z M86.4557135,17.2553164 L86.4557135,24.8145891 L83.115131,24.8145891 L83.115131,17.6291345 C83.115131,15.6526982 82.0910964,14.3706618 80.1243046,14.3706618 C78.1578063,14.3706618 76.9723909,15.7062255 76.9723909,17.9229527 L76.9723909,24.8145891 L73.631515,24.8145891 L73.631515,7.45255273 L76.9723909,7.45255273 L76.9723909,13.1421527 C77.8074632,12.1536436 79.1275581,11.6192436 80.9326757,11.6192436 C84.0308936,11.6192436 86.4557135,13.8362618 86.4557135,17.2553164 L86.4557135,17.2553164 Z M70.7219659,21.9831709 L72.0420608,21.9831709 L72.0420608,24.8145891 L70.2909325,24.8145891 C67.1117307,24.8145891 65.7373532,23.3190255 65.7373532,20.2470255 L65.7373532,14.6109527 L64.1751871,14.6109527 L64.1751871,11.8062982 L65.7373532,11.8062982 L65.7373532,8.25371636 L69.0785225,8.25371636 L69.0785225,11.8062982 L72.0150662,11.8062982 L72.0150662,14.6109527 L69.0785225,14.6109527 L69.0785225,20.2734982 C69.0785225,21.4222982 69.4285722,21.9831709 70.7219659,21.9831709 L70.7219659,21.9831709 Z M59.2175689,18.3238255 C59.2175689,16.0800436 57.8707728,14.5309527 55.7426002,14.5309527 C53.6141342,14.5309527 52.2940393,16.0000436 52.2940393,18.3238255 C52.2940393,20.4873164 53.4794546,22.0634618 55.7426002,22.0634618 C57.789789,22.0634618 59.2175689,20.5943709 59.2175689,18.3238255 L59.2175689,18.3238255 Z M59.2175689,11.8062982 L62.5587383,11.8062982 L62.5587383,24.8145891 L59.2175689,24.8145891 L59.2175689,23.3454982 C58.3288009,24.3872436 56.9280155,24.97488 54.9609303,24.97488 C51.4043909,24.97488 48.8991741,22.1969891 48.8991741,18.3238255 C48.8991741,14.4774255 51.3509886,11.6460073 54.9609303,11.6460073 C56.8737329,11.6460073 58.3288009,12.3139345 59.2175689,13.43568 L59.2175689,11.8062982 Z M44.5885463,13.8097891 C44.5885463,11.9933527 43.5378106,10.9248436 41.6247146,10.9248436 L38.9575301,10.9248436 L38.9575301,16.8282618 L41.6247146,16.8282618 C43.5378106,16.8282618 44.5885463,15.7597527 44.5885463,13.8097891 L44.5885463,13.8097891 Z M47.983118,13.8097891 C47.983118,17.36208 45.6122874,19.4723345 41.9750576,19.4723345 L38.9575301,19.4723345 L38.9575301,24.8145891 L35.6169476,24.8145891 L35.6169476,8.25371636 L41.9750576,8.25371636 C45.6662766,8.25371636 47.983118,10.3907345 47.983118,13.8097891 L47.983118,13.8097891 Z M22.2267426,24.8145891 L25.567912,24.8145891 L25.567912,11.8062982 L22.2267426,11.8062982 L22.2267426,24.8145891 Z M25.9446628,8.25371636 C25.9446628,9.42898909 25.0825959,10.2304436 23.8971806,10.2304436 C22.7117653,10.2304436 21.8496984,9.42898909 21.8496984,8.25371636 C21.8496984,7.05168 22.7117653,6.22375273 23.8971806,6.22375273 C25.0825959,6.22375273 25.9446628,7.05168 25.9446628,8.25371636 L25.9446628,8.25371636 Z M16.2456768,8.25371636 L19.5868462,8.25371636 L19.5868462,17.9500073 C19.5868462,22.3305164 17.0810425,24.97488 12.8511051,24.97488 C8.70215146,24.97488 6.250337,22.3837527 6.250337,17.9500073 L6.250337,8.25371636 L9.59121294,8.25371636 L9.59121294,17.9500073 C9.59121294,20.3805527 10.614954,21.8496436 12.9317955,21.8496436 C15.1682399,21.8496436 16.2456768,20.4608436 16.2456768,17.9500073 L16.2456768,8.25371636 Z M3.34108134,28.6877527 L28.9357825,28.6877527 L28.9357825,3.31204364 L3.34108134,3.31204364 L3.34108134,28.6877527 Z M-8.802589e-05,32.0000436 L32.2760716,32.0000436 L32.2760716,4.36363636e-05 L-8.802589e-05,4.36363636e-05 L-8.802589e-05,32.0000436 Z"/>
</svg>
