<svg width="50"
  height="50"
  viewBox="0 0 50 50"
  fill="none"
  xmlns="http://www.w3.org/2000/svg">
  <path d="M50 50V31.6875C50 22.6875 48.0625 15.8125 37.5625 15.8125C32.5 15.8125 29.125 18.5625 27.75 21.1875H27.625V16.625H17.6875V50H28.0625V33.4375C28.0625 29.0625 28.875 24.875 34.25 24.875C39.5625 24.875 39.625 29.8125 39.625 33.6875V49.9375H50V50Z"
    fill="#526069"/>
  <path d="M0.812492 16.625H11.1875V50H0.812492V16.625Z"
    fill="#526069"/>
  <path d="M6 0C2.6875 0 0 2.6875 0 6.00001C0 9.31251 2.6875 12.0625 6 12.0625C9.3125 12.0625 12 9.31251 12 6.00001C12 2.6875 9.3125 0 6 0Z"
    fill="#526069"/>
</svg>
