<svg width="64"
  height="64"
  viewBox="0 0 64 64"
  fill="none"
  xmlns="http://www.w3.org/2000/svg">
  <rect width="64"
    height="64"
    rx="32"
    fill="#F4FBFC"/>
  <path d="M34.5 17V25.75H50.75L47 21.375L50.75 17H34.5Z"
    fill="#454798"/>
  <path d="M28.875 30.75V14.5C28.875 14.1685 28.7433 13.8505 28.5089 13.6161C28.2745 13.3817 27.9565 13.25 27.625 13.25C27.2935 13.25 26.9755 13.3817 26.7411 13.6161C26.5067 13.8505 26.375 14.1685 26.375 14.5V30.75"
    fill="#CCCCCC"/>
  <path d="M29.5 40.75V30.75H25.75V38.25H26.375C26.7065 38.25 27.0245 38.3817 27.2589 38.6161C27.4933 38.8505 27.625 39.1685 27.625 39.5V40.75H29.5Z"
    fill="#454798"/>
  <path d="M18.875 40.75H20.75L23.25 38.25H26.375C26.7065 38.25 27.0245 38.3817 27.2589 38.6161C27.4933 38.8505 27.625 39.1685 27.625 39.5V40.75H31.375C31.7065 40.75 32.0245 40.8817 32.2589 41.1161C32.4933 41.3505 32.625 41.6685 32.625 42V49.5C32.625 49.8315 32.4933 50.1495 32.2589 50.3839C32.0245 50.6183 31.7065 50.75 31.375 50.75H23.25L20.75 49.5H18.875V40.75Z"
    fill="#FBE1CA"/>
  <path d="M13.25 39.5H18.875V50.75H13.25V39.5Z"
    fill="#26B5BE"/>
  <path d="M27.625 45.1244H32.625V46.3738H27.625V45.1244Z"
    fill="#F2B9A1"/>
  <path d="M27.625 42.6244H32.625V43.8738H27.625V42.6244Z"
    fill="#F2B9A1"/>
  <path d="M22 45.125V43.875C22.663 43.875 23.2989 43.6116 23.7678 43.1428C24.2366 42.6739 24.5 42.038 24.5 41.375V40.75H25.75V41.375C25.749 42.3693 25.3536 43.3225 24.6506 44.0256C23.9475 44.7286 22.9943 45.124 22 45.125Z"
    fill="#F2B9A1"/>
  <path d="M32.625 48.875H26.375C26.0435 48.875 25.7255 48.7433 25.4911 48.5089C25.2567 48.2745 25.125 47.9565 25.125 47.625V43.875H26.375V47.625H32.625V48.875Z"
    fill="#F2B9A1"/>
  <path d="M28.875 14.5H44.5V23.25H28.875"
    fill="#6A6CAD"/>
  <path d="M29.5 40.75L33.875 36.375L38.25 40.75L47.625 31.375L48.875 32.625V28.25H44.5L45.75 29.5L38.25 37L33.875 32.625L29.5 37"
    fill="#E8BA52"/>
  <path d="M18.875 20.75C18.875 19.7554 19.2701 18.8016 19.9733 18.0983C20.6766 17.3951 21.6304 17 22.625 17C21.6304 17 20.6766 16.6049 19.9733 15.9017C19.2701 15.1984 18.875 14.2446 18.875 13.25C18.875 14.2446 18.4799 15.1984 17.7767 15.9017C17.0734 16.6049 16.1196 17 15.125 17C16.1196 17 17.0734 17.3951 17.7767 18.0983C18.4799 18.8016 18.875 19.7554 18.875 20.75Z"
    fill="#F1D697"/>
  <path d="M47 44.5C47 43.5054 47.3951 42.5516 48.0983 41.8483C48.8016 41.1451 49.7554 40.75 50.75 40.75C49.7554 40.75 48.8016 40.3549 48.0983 39.6517C47.3951 38.9484 47 37.9946 47 37C47 37.9946 46.6049 38.9484 45.9017 39.6517C45.1984 40.3549 44.2446 40.75 43.25 40.75C44.2446 40.75 45.1984 41.1451 45.9017 41.8483C46.6049 42.5516 47 43.5054 47 44.5Z"
    fill="#F1D697"/>
  <path d="M13.25 49.3025C15.3748 48.9027 17.3327 47.8802 18.875 46.365V39.5H13.25V49.3025Z"
    fill="#51C4CB"/>
</svg>
